# xmcd
# Track frame offsets:
# 150
# 11212
# 24975
# 39232
# 53492
# 63062
# 76560
# 86560
# 94675
# 105845
# 115860
# 127515
# 137597
# 146590
# 154767
# 165160
# 175567
# 187355
# 196775
# 207547
# 225817
# 234280
# 242790
#
# Disc length: 3396 seconds
# Revision: 0
# Processed by: cddbd v1.5.2PL0 Copyright (c) Steve Scherf et al.
# Submitted via: VisiTrax 2.9.10.228 - For more info visit www.synapsa.com
#
DISCID=040d4217
DTITLE=Roger Miller - The Best of Roger Miller
DYEAR=1900
DGENRE=
TTITLE0=King of the road
TTITLE1=Loving her was easier
TTITLE2=Green, green grass of home
TTITLE3=Jody and the Kid
TTITLE4=Train of life
TTITLE5=Ruby, don't take your love to town
TTITLE6=Heartbreak hotel
TTITLE7=Home
TTITLE8=Less and less
TTITLE9=Tall tall trees
TTITLE10=Invitation to the blues
TTITLE11=When two worlds collide
TTITLE12=A world so full of love
TTITLE13=Dang me
TTITLE14=Engine Engine no. 9
TTITLE15=Kansas City Star
TTITLE16=Little green apples
TTITLE17=Only Daddy that'll walk the line
TTITLE18=Husbands and wives
TTITLE19=Me and Bobby McGee
TTITLE20=Billy Bayou
TTITLE21=England swings
TTITLE22=Walking in the sunshine
EXTD=Spectrum, 554 372-2
EXTT0=
EXTT1=
EXTT2=
EXTT3=
EXTT4=
EXTT5=
EXTT6=
EXTT7=
EXTT8=
EXTT9=
EXTT10=
EXTT11=
EXTT12=
EXTT13=
EXTT14=
EXTT15=
EXTT16=
EXTT17=
EXTT18=
EXTT19=
EXTT20=
EXTT21=
EXTT22=
PLAYORDER=
